<svg width="33" height="32" viewBox="0 0 33 32" fill="none" xmlns="http://www.w3.org/2000/svg">
<path d="M12.0992 7.375L11.1367 5.0625" stroke="#A3A3A3" stroke-width="2" stroke-linecap="round" stroke-linejoin="round"/>
<path d="M5.875 13.6L3.5625 12.6375" stroke="#A3A3A3" stroke-width="2" stroke-linecap="round" stroke-linejoin="round"/>
<path d="M27.125 13.6L29.4375 12.6375" stroke="#A3A3A3" stroke-width="2" stroke-linecap="round" stroke-linejoin="round"/>
<path d="M20.9004 7.375L21.8629 5.0625" stroke="#A3A3A3" stroke-width="2" stroke-linecap="round" stroke-linejoin="round"/>
<path d="M30.5 20H2.5" stroke="#A3A3A3" stroke-width="2" stroke-linecap="round" stroke-linejoin="round"/>
<path d="M26.5 25H6.5" stroke="#A3A3A3" stroke-width="2" stroke-linecap="round" stroke-linejoin="round"/>
<path d="M9.275 20.0001C8.96467 18.8859 8.91624 17.715 9.13352 16.5789C9.35079 15.4429 9.82787 14.3725 10.5275 13.4514C11.2271 12.5303 12.1302 11.7835 13.1663 11.2694C14.2024 10.7553 15.3434 10.4878 16.5 10.4878C17.6566 10.4878 18.7976 10.7553 19.8337 11.2694C20.8698 11.7835 21.7729 12.5303 22.4725 13.4514C23.1721 14.3725 23.6492 15.4429 23.8665 16.5789C24.0838 17.715 24.0353 18.8859 23.725 20.0001" stroke="#A3A3A3" stroke-width="2" stroke-linecap="round" stroke-linejoin="round"/>
</svg>
