<svg width="33" height="32" viewBox="0 0 33 32" fill="none" xmlns="http://www.w3.org/2000/svg">
<path d="M11.5 3V7" stroke="#A3A3A3" stroke-width="2" stroke-linecap="round" stroke-linejoin="round"/>
<path d="M15.5 3V7" stroke="#A3A3A3" stroke-width="2" stroke-linecap="round" stroke-linejoin="round"/>
<path d="M19.5 3V7" stroke="#A3A3A3" stroke-width="2" stroke-linecap="round" stroke-linejoin="round"/>
<path d="M4.5 27H26.5" stroke="#A3A3A3" stroke-width="2" stroke-linecap="round" stroke-linejoin="round"/>
<path d="M10.9125 27C8.99859 26.1218 7.37697 24.7127 6.24027 22.9401C5.10357 21.1674 4.49957 19.1058 4.5 17V11H26.5V17C26.5004 19.1058 25.8964 21.1674 24.7597 22.9401C23.623 24.7127 22.0014 26.1218 20.0875 27" stroke="#A3A3A3" stroke-width="2" stroke-linecap="round" stroke-linejoin="round"/>
<path d="M26.4992 11C27.5601 11 28.5775 11.4214 29.3276 12.1716C30.0778 12.9217 30.4992 13.9391 30.4992 15V16C30.4992 17.0609 30.0778 18.0783 29.3276 18.8284C28.5775 19.5786 27.5601 20 26.4992 20H26.0742" stroke="#A3A3A3" stroke-width="2" stroke-linecap="round" stroke-linejoin="round"/>
</svg>
