<svg width="29" height="22" viewBox="0 0 29 22" fill="none" xmlns="http://www.w3.org/2000/svg">
<path d="M27.8327 20.3333L24.3459 18.2413C22.4343 17.0943 20.011 17.2573 18.2702 18.6499L17.8311 19.0013C15.8832 20.5595 13.1155 20.5595 11.1676 19.0013L10.7284 18.6499C8.98767 17.2573 6.56437 17.0943 4.65277 18.2413L1.16602 20.3333M27.8327 12.3333L24.3459 10.2413C22.4343 9.09431 20.011 9.2573 18.2702 10.6499L17.8311 11.0013C15.8832 12.5595 13.1155 12.5595 11.1676 11.0013L10.7284 10.6499C8.98767 9.2573 6.56437 9.0943 4.65277 10.2413L1.16602 12.3333M27.8327 4.33331L24.3459 2.24127C22.4343 1.09431 20.011 1.2573 18.2702 2.64993L17.8311 3.00128C15.8832 4.55955 13.1155 4.55955 11.1676 3.00128L10.7284 2.64993C8.98767 1.2573 6.56437 1.0943 4.65277 2.24126L1.16602 4.33331" stroke="#A3A3A3" stroke-width="2" stroke-linecap="round"/>
</svg>
