<svg width="18" height="20" viewBox="0 0 18 20" fill="none" xmlns="http://www.w3.org/2000/svg">
<path d="M3.91667 6.66699C3.91667 6.25278 3.58088 5.91699 3.16667 5.91699C2.75245 5.91699 2.41667 6.25278 2.41667 6.66699H3.91667ZM15.5833 6.66699C15.5833 6.25278 15.2475 5.91699 14.8333 5.91699C14.4191 5.91699 14.0833 6.25278 14.0833 6.66699H15.5833ZM11.4167 9.16699C11.4167 8.75278 11.0809 8.41699 10.6667 8.41699C10.2525 8.41699 9.91667 8.75278 9.91667 9.16699H11.4167ZM9.91667 14.167C9.91667 14.5812 10.2525 14.917 10.6667 14.917C11.0809 14.917 11.4167 14.5812 11.4167 14.167H9.91667ZM8.08333 9.16699C8.08333 8.75278 7.74755 8.41699 7.33333 8.41699C6.91912 8.41699 6.58333 8.75278 6.58333 9.16699H8.08333ZM6.58333 14.167C6.58333 14.5812 6.91912 14.917 7.33333 14.917C7.74755 14.917 8.08333 14.5812 8.08333 14.167H6.58333ZM16.5 4.91699C16.9142 4.91699 17.25 4.58121 17.25 4.16699C17.25 3.75278 16.9142 3.41699 16.5 3.41699V4.91699ZM1.5 3.41699C1.08579 3.41699 0.75 3.75278 0.75 4.16699C0.75 4.58121 1.08579 4.91699 1.5 4.91699V3.41699ZM11.1614 2.40916L10.5374 2.82518V2.82518L11.1614 2.40916ZM6.83856 2.40916L6.21452 1.99313V1.99313L6.83856 2.40916ZM6.5 19.0837H11.5V17.5837H6.5V19.0837ZM2.41667 6.66699V15.0003H3.91667V6.66699H2.41667ZM15.5833 15.0003V6.66699H14.0833V15.0003H15.5833ZM11.5 19.0837C13.7552 19.0837 15.5833 17.2555 15.5833 15.0003H14.0833C14.0833 16.4271 12.9267 17.5837 11.5 17.5837V19.0837ZM6.5 17.5837C5.07326 17.5837 3.91667 16.4271 3.91667 15.0003H2.41667C2.41667 17.2555 4.24484 19.0837 6.5 19.0837V17.5837ZM9.91667 9.16699V14.167H11.4167V9.16699H9.91667ZM6.58333 9.16699L6.58333 14.167H8.08333L8.08333 9.16699H6.58333ZM8.22531 2.41699H9.77469V0.916992H8.22531V2.41699ZM10.5374 2.82518L11.7093 4.58302L12.9574 3.75097L11.7855 1.99313L10.5374 2.82518ZM12.3333 3.41699H5.66667V4.91699H12.3333V3.41699ZM6.2907 4.58302L7.46259 2.82518L6.21452 1.99313L5.04263 3.75097L6.2907 4.58302ZM12.3333 4.91699H16.5V3.41699H12.3333V4.91699ZM5.66667 3.41699H1.5V4.91699H5.66667V3.41699ZM9.77469 2.41699C10.0812 2.41699 10.3674 2.57017 10.5374 2.82518L11.7855 1.99313C11.3373 1.32082 10.5827 0.916992 9.77469 0.916992V2.41699ZM8.22531 0.916992C7.41729 0.916992 6.66273 1.32082 6.21452 1.99313L7.46259 2.82518C7.6326 2.57017 7.91882 2.41699 8.22531 2.41699V0.916992Z" fill="#28303F"/>
</svg>
