<svg width="20" height="20" viewBox="0 0 20 20" fill="none" xmlns="http://www.w3.org/2000/svg">
<path d="M18.3346 11.6667L15.8855 9.90334C14.6128 8.98703 12.8735 9.08173 11.7079 10.1308L8.29471 13.2027C7.12906 14.2518 5.3898 14.3465 4.11714 13.4302L1.66797 11.6667M5.0013 18.3334H15.0013C16.8423 18.3334 18.3346 16.841 18.3346 15.0001V5.00008C18.3346 3.15913 16.8423 1.66675 15.0013 1.66675H5.0013C3.16035 1.66675 1.66797 3.15913 1.66797 5.00008V15.0001C1.66797 16.841 3.16035 18.3334 5.0013 18.3334ZM9.16797 7.08341C9.16797 8.23401 8.23523 9.16675 7.08464 9.16675C5.93404 9.16675 5.0013 8.23401 5.0013 7.08341C5.0013 5.93282 5.93404 5.00008 7.08464 5.00008C8.23523 5.00008 9.16797 5.93282 9.16797 7.08341Z" stroke="#1C1917" stroke-width="1.5" stroke-linecap="round"/>
</svg>
