<svg width="33" height="32" viewBox="0 0 33 32" fill="none" xmlns="http://www.w3.org/2000/svg">
<path d="M0.5625 31.9375V0.0625H32.4375V31.9375H0.5625Z" stroke="#A3A3A3" stroke-width="0.125"/>
<path d="M16.5 24.9998C18.5 24.9998 21.8125 24.9748 25.6125 22.7748C29.4125 20.5748 30.65 17.8373 31.0375 16.4248C31.0732 16.2976 31.083 16.1645 31.0663 16.0334C31.0496 15.9023 31.0067 15.7759 30.9403 15.6616C30.8739 15.5474 30.7852 15.4477 30.6795 15.3683C30.5738 15.289 30.4532 15.2317 30.325 15.1998C29.4125 14.9623 27.8125 14.7498 25.7625 15.2373" stroke="#A3A3A3" stroke-width="2" stroke-linecap="round" stroke-linejoin="round"/>
<path d="M7.23747 15.2251C5.18747 14.7501 3.58747 14.9626 2.67497 15.2001C2.54673 15.2319 2.42619 15.2893 2.3205 15.3686C2.2148 15.4479 2.12611 15.5476 2.05967 15.6619C1.99323 15.7761 1.95039 15.9025 1.93369 16.0336C1.917 16.1647 1.92678 16.2978 1.96247 16.4251C2.34997 17.8376 3.58747 20.5876 7.38747 22.7751C11.1875 24.9626 14.5 25.0001 16.5 25.0001" stroke="#A3A3A3" stroke-width="2" stroke-linecap="round" stroke-linejoin="round"/>
<path d="M16.5 25.0001C16.5 25.0001 21.5 22.2751 21.5 15.0001C21.5 9.30005 18.425 6.40005 17.1 5.40005C16.9261 5.27213 16.7159 5.20313 16.5 5.20312C16.2841 5.20313 16.0739 5.27213 15.9 5.40005C14.575 6.40005 11.5 9.30005 11.5 15.0001C11.5 22.2751 16.5 25.0001 16.5 25.0001Z" stroke="#A3A3A3" stroke-width="2" stroke-linecap="round" stroke-linejoin="round"/>
<path d="M16.5 25C18 24.675 22.0375 22.4 24.4625 18.2C26.8875 14 26.2875 10.6625 25.8125 9.19998C25.7399 8.96477 25.5809 8.76574 25.3676 8.64286C25.1543 8.51998 24.9024 8.48233 24.6625 8.53748C23.2273 8.85891 21.8847 9.50456 20.7375 10.425" stroke="#A3A3A3" stroke-width="2" stroke-linecap="round" stroke-linejoin="round"/>
<path d="M12.2625 10.425C11.1153 9.50456 9.77272 8.85891 8.3375 8.53748C8.09758 8.48233 7.84569 8.51998 7.63238 8.64286C7.41907 8.76574 7.26014 8.96477 7.1875 9.19998C6.7125 10.6625 6.1125 14.0125 8.5375 18.2C10.9625 22.3875 15 24.675 16.5 25" stroke="#A3A3A3" stroke-width="2" stroke-linecap="round" stroke-linejoin="round"/>
</svg>
