<svg width="20" height="20" viewBox="0 0 20 20" fill="none" xmlns="http://www.w3.org/2000/svg">
<g clip-path="url(#clip0_670_12571)">
<path d="M2.62693 5.99745L3.05455 6.6136H3.05455L2.62693 5.99745ZM7.95087 2.30252L7.52325 1.68637V1.68637L7.95087 2.30252ZM12.0488 2.30252L12.4764 1.68637V1.68637L12.0488 2.30252ZM17.3727 5.99745L16.9451 6.6136L17.3727 5.99745ZM2.34958 9.37068L1.8318 9.91327H1.8318L2.34958 9.37068ZM17.6501 9.37068L17.1323 8.82809L17.1323 8.8281L17.6501 9.37068ZM6.95942 12.6429C6.5781 12.4811 6.13784 12.6591 5.97607 13.0404C5.8143 13.4218 5.99227 13.862 6.37359 14.0238L6.95942 12.6429ZM13.6302 14.022C14.0105 13.858 14.1859 13.4167 14.0219 13.0364C13.8578 12.656 13.4165 12.4806 13.0362 12.6447L13.6302 14.022ZM13.4835 17.5834H6.51621V19.0834H13.4835V17.5834ZM3.05455 6.6136L8.37849 2.91867L7.52325 1.68637L2.1993 5.3813L3.05455 6.6136ZM11.6212 2.91867L16.9451 6.6136L17.8004 5.3813L12.4764 1.68637L11.6212 2.91867ZM16.2171 10.9442V15.009H17.7171V10.9442H16.2171ZM3.78259 15.009V10.9442H2.28259V15.009H3.78259ZM3.78259 10.9442C3.78259 10.1435 3.44893 9.38308 2.86736 8.82809L1.8318 9.91327C2.12487 10.1929 2.28259 10.5646 2.28259 10.9442H3.78259ZM17.1323 8.8281C16.5507 9.38308 16.2171 10.1435 16.2171 10.9442H17.7171C17.7171 10.5646 17.8748 10.1929 18.1679 9.91327L17.1323 8.8281ZM8.37849 2.91867C9.34287 2.24936 10.6568 2.24936 11.6212 2.91867L12.4764 1.68637C10.9977 0.660127 9.00193 0.660127 7.52325 1.68637L8.37849 2.91867ZM6.51621 17.5834C4.97301 17.5834 3.78259 16.3981 3.78259 15.009H2.28259C2.28259 17.2919 4.21151 19.0834 6.51621 19.0834V17.5834ZM13.4835 19.0834C15.7882 19.0834 17.7171 17.2919 17.7171 15.009H16.2171C16.2171 16.3981 15.0267 17.5834 13.4835 17.5834V19.0834ZM16.9451 6.6136C17.7197 7.15117 17.7971 8.1937 17.1323 8.82809L18.1679 9.91327C19.5296 8.61385 19.3435 6.45228 17.8004 5.3813L16.9451 6.6136ZM2.1993 5.3813C0.656148 6.45228 0.470116 8.61385 1.8318 9.91327L2.86736 8.8281C2.20257 8.1937 2.27998 7.15117 3.05455 6.6136L2.1993 5.3813ZM6.37359 14.0238C7.73829 14.6028 8.874 14.9196 10.0354 14.9167C11.1976 14.9138 12.311 14.5909 13.6302 14.022L13.0362 12.6447C11.8023 13.1767 10.9039 13.4145 10.0317 13.4167C9.15877 13.4189 8.23767 13.1852 6.95942 12.6429L6.37359 14.0238Z" fill="#3F9BFC"/>
</g>
<defs>
<clipPath id="clip0_670_12571">
<rect width="20" height="20" fill="white"/>
</clipPath>
</defs>
</svg>
