<svg width="37" height="38" viewBox="0 0 37 38" fill="none" xmlns="http://www.w3.org/2000/svg">
<path d="M21.832 2.33325H8.4987C4.8168 2.33325 1.83203 5.31802 1.83203 8.99992V28.9999C1.83203 32.6818 4.8168 35.6666 8.4987 35.6666H28.4987C32.1806 35.6666 35.1654 32.6818 35.1654 28.9999V15.6666M30.1654 2.33325V12.3333M35.1654 7.33325L25.1654 7.33325M35.1654 22.3333L30.267 18.8064C27.7217 16.9738 24.2432 17.1632 21.9119 19.2614L15.0855 25.4051C12.7542 27.5033 9.27569 27.6927 6.73038 25.8601L1.83203 22.3333M16.832 13.1666C16.832 15.4678 14.9666 17.3333 12.6654 17.3333C10.3642 17.3333 8.4987 15.4678 8.4987 13.1666C8.4987 10.8654 10.3642 8.99992 12.6654 8.99992C14.9666 8.99992 16.832 10.8654 16.832 13.1666Z" stroke="#1C1917" stroke-width="3" stroke-linecap="round"/>
</svg>
