<svg width="33" height="32" viewBox="0 0 33 32" fill="none" xmlns="http://www.w3.org/2000/svg">
<path d="M28.5 21.3333V24C28.5 26.2091 26.7091 28 24.5 28C22.2909 28 20.5 26.2091 20.5 24V21.3333C20.5 19.1242 22.2909 17.3333 24.5 17.3333C26.7091 17.3333 28.5 19.1242 28.5 21.3333ZM28.5 21.3333V16C28.5 9.37258 23.1274 4 16.5 4C9.87258 4 4.5 9.37258 4.5 16V21.3333M4.5 21.3333V24C4.5 26.2091 6.29086 28 8.5 28C10.7091 28 12.5 26.2091 12.5 24V21.3333C12.5 19.1242 10.7091 17.3333 8.5 17.3333C6.29086 17.3333 4.5 19.1242 4.5 21.3333Z" stroke="#A3A3A3" stroke-width="2" stroke-linecap="square" stroke-linejoin="round"/>
</svg>
