<svg width="18" height="16" viewBox="0 0 18 16" fill="none" xmlns="http://www.w3.org/2000/svg">
<path d="M3 1.75H5V0.25H3V1.75ZM6.25 3V13H7.75V3H6.25ZM5 14.25H3V15.75H5V14.25ZM1.75 13V3H0.25V13H1.75ZM3 14.25C2.30964 14.25 1.75 13.6904 1.75 13H0.25C0.25 14.5188 1.48122 15.75 3 15.75V14.25ZM6.25 13C6.25 13.6904 5.69036 14.25 5 14.25V15.75C6.51878 15.75 7.75 14.5188 7.75 13H6.25ZM5 1.75C5.69036 1.75 6.25 2.30964 6.25 3H7.75C7.75 1.48122 6.51878 0.25 5 0.25V1.75ZM3 0.25C1.48122 0.25 0.25 1.48122 0.25 3H1.75C1.75 2.30964 2.30964 1.75 3 1.75V0.25ZM13 1.75H15V0.25H13V1.75ZM16.25 3V13H17.75V3H16.25ZM15 14.25H13V15.75H15V14.25ZM11.75 13V3H10.25V13H11.75ZM13 14.25C12.3096 14.25 11.75 13.6904 11.75 13H10.25C10.25 14.5188 11.4812 15.75 13 15.75V14.25ZM16.25 13C16.25 13.6904 15.6904 14.25 15 14.25V15.75C16.5188 15.75 17.75 14.5188 17.75 13H16.25ZM15 1.75C15.6904 1.75 16.25 2.30964 16.25 3H17.75C17.75 1.48122 16.5188 0.25 15 0.25V1.75ZM13 0.25C11.4812 0.25 10.25 1.48122 10.25 3H11.75C11.75 2.30964 12.3096 1.75 13 1.75V0.25Z" fill="#1C1917"/>
</svg>
