<svg width="14" height="15" viewBox="0 0 14 15" fill="none" xmlns="http://www.w3.org/2000/svg">
<path d="M1 13.5L0.263231 13.3597C0.216798 13.6037 0.294096 13.8548 0.46967 14.0303C0.645244 14.2059 0.896334 14.2832 1.14025 14.2368L1 13.5ZM2.19131 9.68118L1.66098 9.15085L2.19131 9.68118ZM1.46611 11.0515L0.729336 10.9112L1.46611 11.0515ZM4.81882 12.3087L4.28849 11.7784L4.81882 12.3087ZM3.44852 13.0339L3.58877 13.7707L3.44852 13.0339ZM12.4558 4.67169L12.9862 5.20202L12.4558 4.67169ZM9.82831 2.04418L10.3586 2.57451L9.82831 2.04418ZM9.12131 2.8571C8.82842 2.5642 8.35355 2.5642 8.06065 2.8571C7.76776 3.14999 7.76776 3.62486 8.06065 3.91776L9.12131 2.8571ZM10.5823 6.43943C10.8752 6.73232 11.3501 6.73232 11.643 6.43943C11.9359 6.14653 11.9359 5.67166 11.643 5.37877L10.5823 6.43943ZM11.9255 4.14136L4.28849 11.7784L5.34915 12.839L12.9862 5.20202L11.9255 4.14136ZM2.72164 10.2115L10.3586 2.57451L9.29798 1.51385L1.66098 9.15085L2.72164 10.2115ZM3.30827 12.2971L0.859747 12.7632L1.14025 14.2368L3.58877 13.7707L3.30827 12.2971ZM1.73677 13.6403L2.20287 11.1917L0.729336 10.9112L0.263231 13.3597L1.73677 13.6403ZM1.66098 9.15085C1.1809 9.63092 0.856298 10.2443 0.729336 10.9112L2.20287 11.1917C2.27357 10.8204 2.45432 10.4788 2.72164 10.2115L1.66098 9.15085ZM4.28849 11.7784C4.02117 12.0457 3.67964 12.2264 3.30827 12.2971L3.58877 13.7707C4.25572 13.6437 4.86908 13.3191 5.34915 12.839L4.28849 11.7784ZM11.9255 2.57451C12.3582 3.00718 12.3582 3.70869 11.9255 4.14136L12.9862 5.20202C14.0046 4.18356 14.0046 2.53231 12.9862 1.51385L11.9255 2.57451ZM12.9862 1.51385C11.9677 0.495383 10.3164 0.495386 9.29798 1.51385L10.3586 2.57451C10.7913 2.14183 11.4928 2.14183 11.9255 2.57451L12.9862 1.51385ZM8.06065 3.91776L10.5823 6.43943L11.643 5.37877L9.12131 2.8571L8.06065 3.91776Z" fill="#44403C"/>
</svg>
