<svg width="33" height="32" viewBox="0 0 33 32" fill="none" xmlns="http://www.w3.org/2000/svg">
<path d="M18.4993 9.90579C19.2207 9.19865 20.1021 8.65413 21.0841 8.3316M21.0841 8.3316C21.7392 8.11646 22.439 8.00008 23.166 8.00008C26.8479 8.00008 29.8327 10.9848 29.8327 14.6667C29.8327 16.1677 29.3364 17.5525 28.4993 18.6667M21.0841 8.3316C19.6589 5.00064 16.3517 2.66675 12.4993 2.66675C7.34469 2.66675 3.16602 6.84542 3.16602 12.0001C3.16602 14.2848 3.98692 16.3777 5.34986 18.0001" stroke="#A3A3A3" stroke-width="2" stroke-linecap="round" stroke-linejoin="round"/>
<path d="M11.834 23.3333C11.834 24.8061 10.9386 25.3333 9.83398 25.3333C8.72941 25.3333 7.83398 24.8061 7.83398 23.3333C7.83398 21.8606 9.83398 20 9.83398 20C9.83398 20 11.834 21.8606 11.834 23.3333Z" stroke="#A3A3A3" stroke-width="2" stroke-linejoin="round"/>
<path d="M25.1673 23.3333C25.1673 24.8061 24.2719 25.3333 23.1673 25.3333C22.0627 25.3333 21.1673 24.8061 21.1673 23.3333C21.1673 21.8606 23.1673 20 23.1673 20C23.1673 20 25.1673 21.8606 25.1673 23.3333Z" stroke="#A3A3A3" stroke-width="2" stroke-linejoin="round"/>
<path d="M18.5007 27.3333C18.5007 28.8061 17.6052 29.3333 16.5007 29.3333C15.3961 29.3333 14.5007 28.8061 14.5007 27.3333C14.5007 25.8606 16.5007 24 16.5007 24C16.5007 24 18.5007 25.8606 18.5007 27.3333Z" stroke="#A3A3A3" stroke-width="2" stroke-linejoin="round"/>
</svg>
