<svg width="34" height="30" viewBox="0 0 34 30" fill="none" xmlns="http://www.w3.org/2000/svg">
<g filter="url(#filter0_d_614_9565)">
<path d="M15 5V4.25C14.5858 4.25 14.25 4.58579 14.25 5H15ZM18.4007 12.5496C18.1519 12.8808 18.2187 13.3509 18.5499 13.5997C18.8811 13.8484 19.3513 13.7816 19.6 13.4504L18.4007 12.5496ZM27 17.25C27.4142 17.25 27.75 16.9142 27.75 16.5C27.75 16.0858 27.4142 15.75 27 15.75V17.25ZM19 15.75C18.5858 15.75 18.25 16.0858 18.25 16.5C18.25 16.9142 18.5858 17.25 19 17.25V15.75ZM27 12.75C27.4142 12.75 27.75 12.4142 27.75 12C27.75 11.5858 27.4142 11.25 27 11.25V12.75ZM23 11.25C22.5858 11.25 22.25 11.5858 22.25 12C22.25 12.4142 22.5858 12.75 23 12.75V11.25ZM27 21.75C27.4142 21.75 27.75 21.4142 27.75 21C27.75 20.5858 27.4142 20.25 27 20.25V21.75ZM19 20.25C18.5858 20.25 18.25 20.5858 18.25 21C18.25 21.4142 18.5858 21.75 19 21.75V20.25ZM14.25 17C14.25 18.7949 12.7949 20.25 11 20.25V21.75C13.6234 21.75 15.75 19.6234 15.75 17H14.25ZM11 20.25C9.20507 20.25 7.75 18.7949 7.75 17H6.25C6.25 19.6234 8.37665 21.75 11 21.75V20.25ZM7.75 17C7.75 15.2051 9.20507 13.75 11 13.75V12.25C8.37665 12.25 6.25 14.3766 6.25 17H7.75ZM11 13.75C12.7949 13.75 14.25 15.2051 14.25 17H15.75C15.75 14.3766 13.6234 12.25 11 12.25V13.75ZM15 5.75C17.3472 5.75 19.25 7.65279 19.25 10H20.75C20.75 6.82436 18.1756 4.25 15 4.25V5.75ZM19.25 10C19.25 10.9576 18.9342 11.8393 18.4007 12.5496L19.6 13.4504C20.3219 12.4894 20.75 11.2936 20.75 10H19.25ZM14.25 5V17H15.75V5H14.25ZM27 15.75H19V17.25H27V15.75ZM27 11.25H23V12.75H27V11.25ZM27 20.25H19V21.75H27V20.25Z" fill="white"/>
</g>
<defs>
<filter id="filter0_d_614_9565" x="-1" y="-3" width="36" height="36" filterUnits="userSpaceOnUse" color-interpolation-filters="sRGB">
<feFlood flood-opacity="0" result="BackgroundImageFix"/>
<feColorMatrix in="SourceAlpha" type="matrix" values="0 0 0 0 0 0 0 0 0 0 0 0 0 0 0 0 0 0 127 0" result="hardAlpha"/>
<feOffset dy="2"/>
<feGaussianBlur stdDeviation="3"/>
<feComposite in2="hardAlpha" operator="out"/>
<feColorMatrix type="matrix" values="0 0 0 0 0 0 0 0 0 0 0 0 0 0 0 0 0 0 0.3 0"/>
<feBlend mode="normal" in2="BackgroundImageFix" result="effect1_dropShadow_614_9565"/>
<feBlend mode="normal" in="SourceGraphic" in2="effect1_dropShadow_614_9565" result="shape"/>
</filter>
</defs>
</svg>
