<svg width="17" height="16" viewBox="0 0 17 16" fill="none" xmlns="http://www.w3.org/2000/svg">
<path d="M5.5 1.75H11.5V0.25H5.5V1.75ZM14.75 5V11H16.25V5H14.75ZM11.5 14.25H5.5V15.75H11.5V14.25ZM2.25 11V5H0.75V11H2.25ZM5.5 14.25C3.70507 14.25 2.25 12.7949 2.25 11H0.75C0.75 13.6234 2.87665 15.75 5.5 15.75V14.25ZM14.75 11C14.75 12.7949 13.2949 14.25 11.5 14.25V15.75C14.1234 15.75 16.25 13.6234 16.25 11H14.75ZM11.5 1.75C13.2949 1.75 14.75 3.20507 14.75 5H16.25C16.25 2.37665 14.1234 0.25 11.5 0.25V1.75ZM5.5 0.25C2.87665 0.25 0.75 2.37665 0.75 5H2.25C2.25 3.20507 3.70507 1.75 5.5 1.75V0.25Z" fill="white"/>
</svg>
