<svg width="20" height="20" viewBox="0 0 20 20" fill="none" xmlns="http://www.w3.org/2000/svg">
<g clip-path="url(#clip0_670_12591)">
<path d="M6.30169 7.7477C5.97825 7.48895 5.50628 7.54139 5.24752 7.86483C4.98876 8.18828 5.0412 8.66025 5.36465 8.91901L6.30169 7.7477ZM8.77186 10.6843L8.30334 11.27H8.30334L8.77186 10.6843ZM11.0518 10.4978L10.4944 9.99607L11.0518 10.4978ZM18.0573 3.83508C18.3344 3.52719 18.3094 3.05298 18.0016 2.77588C17.6937 2.49879 17.2195 2.52375 16.9424 2.83163L18.0573 3.83508ZM19.0832 7.50002C19.0832 7.08581 18.7474 6.75002 18.3332 6.75002C17.919 6.75002 17.5832 7.08581 17.5832 7.50002H19.0832ZM14.1665 2.41669C14.5807 2.41669 14.9165 2.0809 14.9165 1.66669C14.9165 1.25247 14.5807 0.916687 14.1665 0.916687V2.41669ZM5.36465 8.91901L8.30334 11.27L9.24038 10.0987L6.30169 7.7477L5.36465 8.91901ZM11.6093 10.9995L18.0573 3.83508L16.9424 2.83163L10.4944 9.99607L11.6093 10.9995ZM8.30334 11.27C9.30301 12.0697 10.7529 11.9511 11.6093 10.9995L10.4944 9.99607C10.1695 10.357 9.61956 10.402 9.24038 10.0987L8.30334 11.27ZM0.916504 5.00002V15H2.4165V5.00002H0.916504ZM4.99984 19.0834H14.9998V17.5834H4.99984V19.0834ZM19.0832 15V7.50002H17.5832V15H19.0832ZM4.99984 2.41669H14.1665V0.916687H4.99984V2.41669ZM14.9998 19.0834C17.255 19.0834 19.0832 17.2552 19.0832 15H17.5832C17.5832 16.4268 16.4266 17.5834 14.9998 17.5834V19.0834ZM0.916504 15C0.916504 17.2552 2.74467 19.0834 4.99984 19.0834V17.5834C3.5731 17.5834 2.4165 16.4268 2.4165 15H0.916504ZM2.4165 5.00002C2.4165 3.57328 3.5731 2.41669 4.99984 2.41669V0.916687C2.74467 0.916687 0.916504 2.74486 0.916504 5.00002H2.4165Z" fill="#1C1917"/>
</g>
<defs>
<clipPath id="clip0_670_12591">
<rect width="20" height="20" fill="white"/>
</clipPath>
</defs>
</svg>
