<svg width="29" height="30" viewBox="0 0 29 30" fill="none" xmlns="http://www.w3.org/2000/svg">
<path d="M19.8327 23.0001L20.5138 22.2679C20.1299 21.9108 19.5354 21.9108 19.1516 22.2679L19.8327 23.0001ZM15.7993 13.525C15.4049 13.9116 15.3986 14.5448 15.7852 14.9392C16.1719 15.3336 16.805 15.3398 17.1994 14.9532L15.7993 13.525ZM19.0841 12.6649L19.3961 13.615L19.0841 12.6649ZM0.594067 19.2853C0.751606 19.8147 1.30843 20.1161 1.83777 19.9585C2.36711 19.801 2.66851 19.2442 2.51097 18.7148L0.594067 19.2853ZM24.5654 23.5339C24.1238 23.8656 24.0348 24.4925 24.3665 24.934C24.6982 25.3756 25.3251 25.4647 25.7666 25.133L24.5654 23.5339ZM10.4993 15.0001H11.4993C11.4993 14.5791 11.2356 14.2031 10.8398 14.0598C10.4439 13.9165 10.0007 14.0365 9.73113 14.3599L10.4993 15.0001ZM3.83268 23.0001L3.06446 22.3599C2.81606 22.658 2.76251 23.0729 2.92709 23.4242C3.09167 23.7756 3.44466 24.0001 3.83268 24.0001V23.0001ZM7.83268 23.0001H8.83268C8.83268 22.4478 8.38497 22.0001 7.83268 22.0001V23.0001ZM7.83268 28.3334H6.83268C6.83268 28.7544 7.09638 29.1304 7.49226 29.2737C7.88813 29.417 8.33137 29.297 8.6009 28.9736L7.83268 28.3334ZM14.4993 20.3334L15.2676 20.9736C15.516 20.6755 15.5695 20.2606 15.4049 19.9093C15.2404 19.5579 14.8874 19.3334 14.4993 19.3334V20.3334ZM10.4993 20.3334H9.49935C9.49935 20.8857 9.94706 21.3334 10.4993 21.3334V20.3334ZM19.4993 1.66675C19.4993 1.11446 19.0516 0.666748 18.4993 0.666748C17.9471 0.666748 17.4993 1.11446 17.4993 1.66675H19.4993ZM17.4993 3.00008C17.4993 3.55237 17.9471 4.00008 18.4993 4.00008C19.0516 4.00008 19.4993 3.55237 19.4993 3.00008H17.4993ZM25.8061 5.1075C26.1966 4.71697 26.1966 4.08381 25.8061 3.69328C25.4156 3.30276 24.7824 3.30276 24.3919 3.69328L25.8061 5.1075ZM23.4491 4.63609C23.0586 5.02662 23.0586 5.65978 23.4491 6.05031C23.8396 6.44083 24.4728 6.44083 24.8633 6.05031L23.4491 4.63609ZM27.8327 12.0001C28.385 12.0001 28.8327 11.5524 28.8327 11.0001C28.8327 10.4478 28.385 10.0001 27.8327 10.0001V12.0001ZM26.4993 10.0001C25.9471 10.0001 25.4993 10.4478 25.4993 11.0001C25.4993 11.5524 25.9471 12.0001 26.4993 12.0001V10.0001ZM20.8327 26.3334C20.8327 26.8596 20.6807 27.0525 20.5893 27.1323C20.473 27.2338 20.2434 27.3334 19.8327 27.3334V29.3334C20.5265 29.3334 21.2969 29.1694 21.9045 28.6391C22.5369 28.0871 22.8327 27.28 22.8327 26.3334H20.8327ZM19.8327 27.3334C19.422 27.3334 19.1923 27.2338 19.076 27.1323C18.9846 27.0525 18.8327 26.8596 18.8327 26.3334H16.8327C16.8327 27.28 17.1285 28.0871 17.7609 28.6391C18.3685 29.1694 19.1388 29.3334 19.8327 29.3334V27.3334ZM18.8327 26.3334C18.8327 26.1785 18.8897 25.9436 19.0427 25.6323C19.191 25.3304 19.3993 25.0176 19.625 24.7246C19.8484 24.4345 20.0743 24.1825 20.2453 24.0024C20.3302 23.913 20.4002 23.8428 20.4477 23.7961C20.4714 23.7728 20.4895 23.7554 20.5008 23.7446C20.5065 23.7392 20.5105 23.7354 20.5127 23.7333C20.5138 23.7323 20.5145 23.7316 20.5146 23.7315C20.5147 23.7314 20.5147 23.7314 20.5146 23.7315C20.5145 23.7316 20.5144 23.7317 20.5143 23.7318C20.5142 23.7319 20.5141 23.732 20.5141 23.732C20.5139 23.7321 20.5138 23.7322 19.8327 23.0001C19.1516 22.2679 19.1514 22.2681 19.1513 22.2682C19.1512 22.2683 19.151 22.2684 19.1509 22.2685C19.1506 22.2688 19.1504 22.269 19.1501 22.2693C19.1494 22.2699 19.1487 22.2706 19.1478 22.2714C19.1461 22.273 19.1439 22.2751 19.1412 22.2776C19.1358 22.2827 19.1286 22.2895 19.1196 22.2981C19.1017 22.3152 19.0767 22.3393 19.0458 22.3697C18.9839 22.4305 18.8976 22.5172 18.7951 22.6252C18.591 22.84 18.317 23.1452 18.0404 23.5043C17.7661 23.8605 17.4743 24.289 17.2477 24.7502C17.0257 25.202 16.8327 25.752 16.8327 26.3334H18.8327ZM19.8327 23.0001C19.1516 23.7322 19.1514 23.7321 19.1513 23.732C19.1513 23.732 19.1511 23.7319 19.1511 23.7318C19.151 23.7317 19.1509 23.7316 19.1508 23.7315C19.1506 23.7314 19.1506 23.7314 19.1507 23.7315C19.1509 23.7316 19.1516 23.7323 19.1527 23.7333C19.1549 23.7354 19.1589 23.7392 19.1646 23.7446C19.1759 23.7554 19.1939 23.7728 19.2176 23.7961C19.2651 23.8428 19.3351 23.913 19.4201 24.0024C19.591 24.1825 19.817 24.4345 20.0404 24.7246C20.2661 25.0176 20.4743 25.3304 20.6227 25.6323C20.7757 25.9436 20.8327 26.1785 20.8327 26.3334H22.8327C22.8327 25.752 22.6397 25.202 22.4177 24.7502C22.191 24.289 21.8993 23.8605 21.625 23.5043C21.3484 23.1452 21.0743 22.84 20.8703 22.6252C20.7677 22.5172 20.6815 22.4305 20.6196 22.3697C20.5886 22.3393 20.5637 22.3152 20.5457 22.2981C20.5368 22.2895 20.5295 22.2827 20.5242 22.2776C20.5215 22.2751 20.5193 22.273 20.5175 22.2714C20.5167 22.2706 20.5159 22.2699 20.5153 22.2693C20.515 22.269 20.5147 22.2688 20.5145 22.2685C20.5143 22.2684 20.5142 22.2683 20.5141 22.2682C20.514 22.2681 20.5138 22.2679 19.8327 23.0001ZM2.16602 16.3334C2.16602 11.731 5.89698 8.00008 10.4993 8.00008V6.00008C4.79241 6.00008 0.166016 10.6265 0.166016 16.3334H2.16602ZM17.1994 14.9532C17.8134 14.3513 18.5627 13.8887 19.3961 13.615L18.7721 11.7149C17.6414 12.0862 16.628 12.7127 15.7993 13.525L17.1994 14.9532ZM19.3961 13.615C19.9517 13.4325 20.5463 13.3334 21.166 13.3334V11.3334C20.3317 11.3334 19.5266 11.4671 18.7721 11.7149L19.3961 13.615ZM18.4993 6.66675C20.8926 6.66675 22.8327 8.60685 22.8327 11.0001H24.8327C24.8327 7.50228 21.9972 4.66675 18.4993 4.66675V6.66675ZM22.8327 11.0001C22.8327 11.5047 22.7468 11.9872 22.5898 12.435L24.477 13.097C24.7077 12.4394 24.8327 11.7333 24.8327 11.0001H22.8327ZM21.166 13.3334C21.8765 13.3334 22.5542 13.4637 23.1782 13.7008L23.8886 11.8312C23.0412 11.5092 22.123 11.3334 21.166 11.3334V13.3334ZM23.1782 13.7008C25.3161 14.5131 26.8327 16.5807 26.8327 19.0001H28.8327C28.8327 15.7231 26.7771 12.9287 23.8886 11.8312L23.1782 13.7008ZM15.0427 8.38626C15.8356 7.3397 17.0887 6.66675 18.4993 6.66675V4.66675C16.4361 4.66675 14.6033 5.65439 13.4486 7.17849L15.0427 8.38626ZM10.4993 8.00008C11.6908 8.00008 12.8214 8.24954 13.8439 8.69811L14.6474 6.86663C13.3765 6.30903 11.9727 6.00008 10.4993 6.00008V8.00008ZM13.8439 8.69811C15.78 9.54758 17.3324 11.1131 18.1647 13.0583L20.0035 12.2715C18.9712 9.85899 17.0485 7.92008 14.6474 6.86663L13.8439 8.69811ZM2.51097 18.7148C2.28676 17.9615 2.16602 17.1624 2.16602 16.3334H0.166016C0.166016 17.3577 0.31534 18.3488 0.594067 19.2853L2.51097 18.7148ZM26.8327 19.0001C26.8327 20.8531 25.944 22.4983 24.5654 23.5339L25.7666 25.133C27.6263 23.736 28.8327 21.509 28.8327 19.0001H26.8327ZM9.73113 14.3599L3.06446 22.3599L4.6009 23.6403L11.2676 15.6403L9.73113 14.3599ZM3.83268 24.0001H7.83268V22.0001H3.83268V24.0001ZM6.83268 23.0001V28.3334H8.83268V23.0001H6.83268ZM8.6009 28.9736L15.2676 20.9736L13.7311 19.6932L7.06446 27.6932L8.6009 28.9736ZM14.4993 19.3334H10.4993V21.3334H14.4993V19.3334ZM11.4993 20.3334V15.0001H9.49935V20.3334H11.4993ZM17.4993 1.66675V3.00008H19.4993V1.66675H17.4993ZM24.3919 3.69328L23.4491 4.63609L24.8633 6.05031L25.8061 5.1075L24.3919 3.69328ZM27.8327 10.0001H26.4993V12.0001H27.8327V10.0001Z" fill="#A3A3A3"/>
</svg>
