<svg width="20" height="10" viewBox="0 0 20 10" fill="none" xmlns="http://www.w3.org/2000/svg">
<path d="M2.13649 5.24736C1.81304 4.9886 1.34107 5.04104 1.08232 5.36449C0.82356 5.68793 0.876001 6.1599 1.19945 6.41866L2.13649 5.24736ZM4.60665 8.18396L4.13813 8.76961H4.13813L4.60665 8.18396ZM6.88664 7.99745L6.32917 7.49573L6.88664 7.99745ZM13.8921 1.33473C14.1692 1.02685 14.1442 0.552631 13.8364 0.275537C13.5285 -0.00155705 13.0543 0.0234017 12.7772 0.331284L13.8921 1.33473ZM7.13649 5.24736C6.81304 4.9886 6.34107 5.04104 6.08232 5.36449C5.82356 5.68793 5.876 6.1599 6.19945 6.41866L7.13649 5.24736ZM9.60665 8.18396L9.13813 8.76961L9.60665 8.18396ZM11.8866 7.99745L11.3292 7.49573L11.8866 7.99745ZM18.8921 1.33473C19.1692 1.02685 19.1442 0.552631 18.8364 0.275537C18.5285 -0.00155705 18.0543 0.0234017 17.7772 0.331284L18.8921 1.33473ZM1.19945 6.41866L4.13813 8.76961L5.07518 7.59831L2.13649 5.24736L1.19945 6.41866ZM7.44411 8.49917L13.8921 1.33473L12.7772 0.331284L6.32917 7.49573L7.44411 8.49917ZM4.13813 8.76961C5.1378 9.56934 6.5877 9.45074 7.44411 8.49917L6.32917 7.49573C6.00432 7.85667 5.45436 7.90165 5.07518 7.59831L4.13813 8.76961ZM6.19945 6.41866L9.13813 8.76961L10.0752 7.59831L7.13649 5.24736L6.19945 6.41866ZM12.4441 8.49917L18.8921 1.33473L17.7772 0.331284L11.3292 7.49573L12.4441 8.49917ZM9.13813 8.76961C10.1378 9.56934 11.5877 9.45074 12.4441 8.49917L11.3292 7.49573C11.0043 7.85667 10.4544 7.90165 10.0752 7.59831L9.13813 8.76961Z" fill="#28303F"/>
</svg>
