<svg width="33" height="32" viewBox="0 0 33 32" fill="none" xmlns="http://www.w3.org/2000/svg">
<path d="M6 16H27" stroke="#A3A3A3" stroke-width="2" stroke-linecap="round" stroke-linejoin="round"/>
<path d="M6 9H27" stroke="#A3A3A3" stroke-width="2" stroke-linecap="round" stroke-linejoin="round"/>
<path d="M12.5 26L9.5 30" stroke="#A3A3A3" stroke-width="2" stroke-linecap="round" stroke-linejoin="round"/>
<path d="M20.5 26L23.5 30" stroke="#A3A3A3" stroke-width="2" stroke-linecap="round" stroke-linejoin="round"/>
<path d="M24 4H9C7.34315 4 6 5.34315 6 7V23C6 24.6569 7.34315 26 9 26H24C25.6569 26 27 24.6569 27 23V7C27 5.34315 25.6569 4 24 4Z" stroke="#A3A3A3" stroke-width="2" stroke-linecap="round" stroke-linejoin="round"/>
<path d="M16.5 9V16" stroke="#A3A3A3" stroke-width="2" stroke-linecap="round" stroke-linejoin="round"/>
<path d="M11 23C11.8284 23 12.5 22.3284 12.5 21.5C12.5 20.6716 11.8284 20 11 20C10.1716 20 9.5 20.6716 9.5 21.5C9.5 22.3284 10.1716 23 11 23Z" fill="#A3A3A3"/>
<path d="M22 23C22.8284 23 23.5 22.3284 23.5 21.5C23.5 20.6716 22.8284 20 22 20C21.1716 20 20.5 20.6716 20.5 21.5C20.5 22.3284 21.1716 23 22 23Z" fill="#A3A3A3"/>
</svg>
