<svg width="36" height="36" viewBox="0 0 36 36" fill="none" xmlns="http://www.w3.org/2000/svg">
<path d="M27.9987 1.33325V0.333255V1.33325ZM34.6654 7.99992H35.6654H34.6654ZM1.33203 7.99992H0.332033H1.33203ZM7.9987 1.33325V2.33325V1.33325ZM7.9987 34.6666V33.6666V34.6666ZM1.33203 27.9999H2.33203H1.33203ZM27.9987 34.6666V35.6666V34.6666ZM34.6654 27.9999H33.6654H34.6654ZM8.66537 34.6666C8.66537 35.2189 9.11308 35.6666 9.66537 35.6666C10.2177 35.6666 10.6654 35.2189 10.6654 34.6666H8.66537ZM10.6654 1.33325C10.6654 0.780967 10.2176 0.333252 9.66536 0.333252C9.11308 0.333252 8.66536 0.780967 8.66536 1.33325L10.6654 1.33325ZM26.332 25.3333H25.332V27.3333H26.332V25.3333ZM32.9987 27.3333H33.9987V25.3333H32.9987L32.9987 27.3333ZM2.9987 25.3333L1.9987 25.3333L1.9987 27.3333L2.9987 27.3333L2.9987 25.3333ZM9.66537 27.3333L10.6654 27.3333L10.6654 25.3333L9.66537 25.3333L9.66537 27.3333ZM26.332 8.66658H25.332L25.332 10.6666H26.332L26.332 8.66658ZM32.9987 10.6666H33.9987V8.66659L32.9987 8.66659L32.9987 10.6666ZM32.9987 18.9999H33.9987V16.9999H32.9987V18.9999ZM2.9987 8.66658L1.9987 8.66658L1.9987 10.6666H2.9987L2.9987 8.66658ZM9.66537 10.6666L10.6654 10.6666L10.6654 8.66659L9.66537 8.66659L9.66537 10.6666ZM2.9987 16.9999H1.9987L1.9987 18.9999H2.9987L2.9987 16.9999ZM25.332 34.6666C25.332 35.2189 25.7797 35.6666 26.332 35.6666C26.8843 35.6666 27.332 35.2189 27.332 34.6666H25.332ZM27.332 1.33325C27.332 0.780967 26.8843 0.333252 26.332 0.333252C25.7797 0.333252 25.332 0.780967 25.332 1.33325L27.332 1.33325ZM27.9987 33.6666L7.9987 33.6666V35.6666L27.9987 35.6666V33.6666ZM2.33203 27.9999L2.33203 7.99992L0.332033 7.99992L0.332031 27.9999H2.33203ZM7.9987 2.33325L27.9987 2.33325V0.333255L7.9987 0.333253V2.33325ZM33.6654 7.99992L33.6654 27.9999H35.6654L35.6654 7.99992L33.6654 7.99992ZM27.9987 2.33325C31.1283 2.33325 33.6654 4.87031 33.6654 7.99992L35.6654 7.99992C35.6654 3.76574 32.2329 0.333255 27.9987 0.333255V2.33325ZM2.33203 7.99992C2.33203 4.87031 4.86909 2.33325 7.9987 2.33325V0.333253C3.76452 0.333252 0.332033 3.76574 0.332033 7.99992L2.33203 7.99992ZM7.9987 33.6666C4.86908 33.6666 2.33203 31.1295 2.33203 27.9999H0.332031C0.332031 32.2341 3.76451 35.6666 7.9987 35.6666V33.6666ZM27.9987 35.6666C32.2329 35.6666 35.6654 32.2341 35.6654 27.9999H33.6654C33.6654 31.1295 31.1283 33.6666 27.9987 33.6666V35.6666ZM10.6654 34.6666L10.6654 1.33325L8.66536 1.33325L8.66537 34.6666H10.6654ZM26.332 27.3333L32.9987 27.3333L32.9987 25.3333L26.332 25.3333V27.3333ZM2.9987 27.3333L9.66537 27.3333L9.66537 25.3333L2.9987 25.3333L2.9987 27.3333ZM26.332 10.6666L32.9987 10.6666L32.9987 8.66659L26.332 8.66658L26.332 10.6666ZM2.9987 10.6666L9.66537 10.6666L9.66537 8.66659L2.9987 8.66658L2.9987 10.6666ZM27.332 34.6666L27.332 1.33325L25.332 1.33325L25.332 34.6666H27.332ZM2.9987 18.9999L32.9987 18.9999V16.9999L2.9987 16.9999L2.9987 18.9999Z" fill="white"/>
</svg>
