<svg width="20" height="20" viewBox="0 0 20 20" fill="none" xmlns="http://www.w3.org/2000/svg">
<path d="M14.9993 8.55623C15.4975 8.84441 15.8327 9.38303 15.8327 9.99993C15.8327 10.6168 15.4975 11.1555 14.9993 11.4436M14.9993 5.91659C16.9012 6.30265 18.3327 7.98411 18.3327 9.99991C18.3327 12.0157 16.9012 13.6972 14.9993 14.0832M6.27704 6.33498L9.83268 3.66946C10.9314 2.84579 12.4993 3.6294 12.4993 5.00219V14.9977C12.4993 16.3704 10.9314 17.1541 9.83268 16.3304L6.27704 13.6649C5.9886 13.4486 5.63782 13.3317 5.27733 13.3317H3.33268C2.41221 13.3317 1.66602 12.5859 1.66602 11.6658V8.33401C1.66602 7.41395 2.41221 6.6681 3.33268 6.6681H5.27733C5.63782 6.6681 5.9886 6.55121 6.27704 6.33498Z" stroke="#292524" stroke-width="1.5" stroke-linecap="round"/>
</svg>
